<svg width="152.527344" height="25.223999" viewBox="0 0 152.527 25.224" fill="none" xmlns="http://www.w3.org/2000/svg" xmlns:xlink="http://www.w3.org/1999/xlink">
	
	<defs/>
	<path id="kanban" d="M44.5605 18.88L44.5605 24.224L39.7598 24.224L39.7598 0L44.5605 0L44.5605 13.056L50.4805 6.75201L56.4004 6.75201L50.0645 13.792L56.3672 24.224L50.9277 24.224L46.4805 16.768L44.5605 18.88ZM69.168 22.592C67.8457 23.936 66.0957 24.608 63.9199 24.608C62.043 24.608 60.5547 24.16 59.4551 23.264C59.0645 22.9451 58.7441 22.5831 58.4922 22.1778C58.0352 21.4441 57.8086 20.5689 57.8086 19.552C57.8086 18.7056 57.9766 17.9438 58.3164 17.2667C58.5664 16.7662 58.9082 16.312 59.3438 15.904C60.3672 14.944 61.9258 14.2933 64.0156 13.952L68.8477 13.184L68.8477 12.704C68.8477 12.4112 68.7969 12.1394 68.6934 11.8884C68.5645 11.5725 68.3555 11.2897 68.0645 11.04C68.0547 11.0327 68.0469 11.0254 68.0371 11.0182C67.5176 10.5847 66.8164 10.368 65.9355 10.368C65.082 10.368 64.3301 10.6027 63.6797 11.072C63.4082 11.2677 63.168 11.4894 62.957 11.737C62.6641 12.0833 62.4297 12.4802 62.2559 12.928L58.416 11.104C58.9277 9.65332 59.8828 8.50134 61.2793 7.64801C61.4102 7.56866 61.541 7.49301 61.6758 7.42102C62.9824 6.71902 64.4766 6.36801 66.1602 6.36801C67.6309 6.36801 68.9336 6.63467 70.0645 7.168C71.1953 7.70132 72.0742 8.44266 72.7031 9.392C72.834 9.58969 72.9531 9.79407 73.0566 10.0052C73.4512 10.8078 73.6484 11.7074 73.6484 12.704L73.6484 24.224L69.168 24.224L69.168 22.592ZM64.8789 21.088C64.2832 21.088 63.7812 20.9387 63.375 20.64C63.2012 20.5117 63.0645 20.3618 62.9648 20.1903C62.834 19.9624 62.7676 19.6963 62.7676 19.392C62.7676 18.816 62.9492 18.3733 63.3125 18.064C63.6738 17.7547 64.1973 17.536 64.8789 17.408L68.8477 16.704L68.8477 17.248C68.8477 18.3147 68.4844 19.2213 67.7598 19.968C67.0352 20.7147 66.0742 21.088 64.8789 21.088ZM81.9668 14.016L81.9668 24.224L77.168 24.224L77.168 6.75201L81.6484 6.75201L81.6484 8.896C82.0957 8.04266 82.7461 7.40799 83.5996 6.992C84.4531 6.57599 85.4336 6.36801 86.543 6.36801C87.8672 6.36801 89.0234 6.64532 90.0156 7.20001C91.0078 7.75467 91.7812 8.52802 92.3359 9.51999C92.8906 10.512 93.168 11.6693 93.168 12.992L93.168 24.224L88.3672 24.224L88.3672 14.016C88.3672 13.0133 88.0684 12.208 87.4727 11.6C86.875 10.992 86.1055 10.688 85.168 10.688C84.2285 10.688 83.4609 10.992 82.8633 11.6C82.2656 12.208 81.9668 13.0133 81.9668 14.016ZM110.703 23.392C109.359 24.2027 107.834 24.608 106.127 24.608C105.061 24.608 104.064 24.432 103.137 24.08C102.207 23.728 101.434 23.2213 100.816 22.56L100.816 24.224L96.3359 24.224L96.3359 0L101.137 0L101.137 8.224C101.377 7.98218 101.637 7.76398 101.912 7.56943C103.045 6.76846 104.461 6.36801 106.16 6.36801C107.824 6.36801 109.328 6.77335 110.672 7.58401C111.287 7.95514 111.844 8.3855 112.344 8.87512C112.934 9.45499 113.443 10.118 113.871 10.864C114.66 12.24 115.057 13.7813 115.057 15.488C115.057 17.1733 114.666 18.7093 113.889 20.096C113.459 20.8592 112.945 21.5351 112.346 22.1238C111.855 22.6048 111.309 23.0275 110.703 23.392ZM105.553 20.288C104.25 20.288 103.189 19.8453 102.367 18.96C101.547 18.0747 101.137 16.9173 101.137 15.488C101.137 14.08 101.547 12.928 102.367 12.032C103.189 11.136 104.25 10.688 105.553 10.688C106.875 10.688 107.963 11.1413 108.816 12.048C109.67 12.9547 110.096 14.1013 110.096 15.488C110.096 16.896 109.67 18.048 108.816 18.944C107.963 19.84 106.875 20.288 105.553 20.288ZM128.527 22.592C127.205 23.936 125.455 24.608 123.279 24.608C121.402 24.608 119.914 24.16 118.816 23.264C117.717 22.368 117.168 21.1307 117.168 19.552C117.168 18.7056 117.338 17.9438 117.676 17.2667C117.926 16.7662 118.27 16.312 118.703 15.904C119.729 14.944 121.285 14.2933 123.375 13.952L128.207 13.184L128.207 12.704C128.207 12.0427 127.947 11.488 127.424 11.04C126.9 10.592 126.191 10.368 125.295 10.368C124.73 10.368 124.211 10.4708 123.734 10.6763C123.492 10.7813 123.26 10.9132 123.039 11.072C122.389 11.5413 121.914 12.16 121.615 12.928L117.775 11.104C117.961 10.5784 118.205 10.0921 118.506 9.6449C119.037 8.85782 119.748 8.19217 120.641 7.64801C122.037 6.79468 123.664 6.36801 125.52 6.36801C126.992 6.36801 128.293 6.63467 129.424 7.168C130.555 7.70132 131.434 8.44266 132.064 9.392C132.195 9.58969 132.312 9.79407 132.416 10.0052C132.811 10.8078 133.008 11.7074 133.008 12.704L133.008 24.224L128.527 24.224L128.527 22.592ZM124.24 21.088C123.643 21.088 123.141 20.9387 122.736 20.64C122.562 20.5117 122.426 20.3618 122.326 20.1903C122.193 19.9624 122.127 19.6963 122.127 19.392C122.127 18.816 122.309 18.3733 122.672 18.064C123.035 17.7547 123.557 17.536 124.24 17.408L128.207 16.704L128.207 17.248C128.207 18.3147 127.846 19.2213 127.119 19.968C126.395 20.7147 125.434 21.088 124.24 21.088ZM141.328 14.016L141.328 24.224L136.527 24.224L136.527 6.75201L141.008 6.75201L141.008 8.896C141.25 8.43616 141.549 8.03983 141.908 7.70697C142.217 7.42215 142.566 7.18384 142.959 6.992C143.812 6.57599 144.795 6.36801 145.904 6.36801C147.227 6.36801 148.383 6.64532 149.375 7.20001C150.367 7.75467 151.141 8.52802 151.695 9.51999C152.25 10.512 152.527 11.6693 152.527 12.992L152.527 24.224L147.729 24.224L147.729 14.016C147.729 13.0133 147.43 12.208 146.832 11.6C146.234 10.992 145.467 10.688 144.527 10.688C143.59 10.688 142.82 10.992 142.225 11.6C141.627 12.208 141.328 13.0133 141.328 14.016Z" clip-rule="evenodd" fill="#000112" fill-opacity="1.000000" fill-rule="evenodd"/>
	<rect id="Rectangle" y="0.223999" rx="2.000000" width="6.000000" height="25.000000" fill="#635FC7" fill-opacity="1.000000"/>
	<rect id="Rectangle" y="0.223999" rx="2.000000" width="6.000000" height="25.000000" stroke="#979797" stroke-opacity="0" stroke-width="0.000000"/>
	<g opacity="0.750000" style="mix-blend-mode:normal">
		<rect id="Rectangle Copy" x="9.000000" y="0.223999" rx="2.000000" width="6.000000" height="25.000000" fill="#635FC7" fill-opacity="1.000000"/>
		<rect id="Rectangle Copy" x="9.000000" y="0.223999" rx="2.000000" width="6.000000" height="25.000000" stroke="#979797" stroke-opacity="0" stroke-width="0.000000"/>
	</g>
	<g opacity="0.500000" style="mix-blend-mode:normal">
		<rect id="Rectangle Copy 2" x="18.000000" y="0.223999" rx="2.000000" width="6.000000" height="25.000000" fill="#635FC7" fill-opacity="1.000000"/>
		<rect id="Rectangle Copy 2" x="18.000000" y="0.223999" rx="2.000000" width="6.000000" height="25.000000" stroke="#979797" stroke-opacity="0" stroke-width="0.000000"/>
	</g>
</svg>
