<svg width="16.000000" height="16.000000" viewBox="0 0 16 16" fill="#828FA3" xmlns="http://www.w3.org/2000/svg" xmlns:xlink="http://www.w3.org/1999/xlink">
	<defs/>
	<path id="Shape" d="M0 2.88889C0 2.12271 0.304382 1.38791 0.84613 0.84613C1.38788 0.304352 2.12268 0 2.88885 0L13.1111 0C13.8773 0 14.6121 0.304352 15.1538 0.84613C15.6957 1.38791 16 2.12271 16 2.88889L16 13.1111C16 13.8773 15.6957 14.6121 15.1538 15.1538C14.6121 15.6957 13.8773 16 13.1111 16L2.88885 16C2.12268 16 1.38788 15.6957 0.84613 15.1538C0.304382 14.6121 0 13.8773 0 13.1111L0 2.88889ZM9.77783 7.11111L9.77783 1.33334L2.88892 1.33334C2.47632 1.33334 2.08069 1.49722 1.78894 1.78894C1.49725 2.08066 1.33331 2.47632 1.33331 2.88889L1.33331 7.11111L9.77783 7.11111ZM14.6667 2.88889L14.6667 4.44446L11.1111 4.44446L11.1111 1.33334L13.1111 1.33334C13.5236 1.33334 13.9194 1.49722 14.2111 1.78894C14.5028 2.08066 14.6667 2.47632 14.6667 2.88889ZM11.1111 5.77777L14.6667 5.77777L14.6667 10.2222L11.1111 10.2222L11.1111 5.77777ZM1.33331 13.1111L1.33331 8.44449L9.77783 8.44449L9.77783 14.6667L2.88892 14.6667C2.03021 14.6667 1.33331 13.9698 1.33331 13.1111ZM14.6667 11.5555L11.1111 11.5555L11.1111 14.6667L13.1111 14.6667C13.5236 14.6667 13.9194 14.5028 14.2111 14.2111C14.5028 13.9194 14.6667 13.5236 14.6667 13.1111L14.6667 11.5555Z" clip-rule="evenodd" fill="current" fill-opacity="1.000000" fill-rule="evenodd"/>
</svg>
