<svg width="122.000000" height="19.000000" viewBox="0 0 122 19" fill="none" xmlns="http://www.w3.org/2000/svg" xmlns:xlink="http://www.w3.org/1999/xlink">
	<desc>
			Created with Pixso.
	</desc>
	<defs>
		<clipPath id="clip0_4507">
			<rect id="Group 17" width="122.000000" height="19.000000" fill="white" fill-opacity="0"/>
		</clipPath>
	</defs>
	<rect id="Group 17" width="122.000000" height="19.000000" fill="#FFFFFF" fill-opacity="0"/>
	<g clip-path="url(#clip0_4507)">
		<path id="Hide Sidebar" d="M45.72 15.88Q46.43 16.17 47.26 16.17Q48.07 16.17 48.76 15.88Q48.94 15.8 49.12 15.7Q49.52 15.47 49.83 15.15Q50.03 14.94 50.19 14.69L50.19 16L51.32 16L51.32 4.64L50.19 4.64L50.19 9.17Q50.1 9.04 50 8.93Q49.62 8.51 49.1 8.22Q49.03 8.18 48.96 8.15Q48.2 7.77 47.26 7.77Q46.36 7.77 45.62 8.11Q45.41 8.2 45.22 8.32Q44.89 8.53 44.6 8.79Q44.13 9.22 43.81 9.81Q43.79 9.84 43.78 9.87Q43.29 10.8 43.29 11.97Q43.29 13.07 43.72 13.95Q43.76 14.04 43.81 14.13Q44.13 14.71 44.59 15.15Q44.88 15.42 45.23 15.63Q45.47 15.77 45.72 15.88ZM67.4 15.77Q68.27 16.17 69.34 16.17Q70.4 16.17 71.22 15.79Q71.92 15.45 72.35 14.9Q72.43 14.81 72.49 14.71Q72.61 14.54 72.69 14.36Q72.95 13.8 72.95 13.13Q72.95 12.36 72.63 11.77Q72.48 11.51 72.27 11.29Q71.6 10.55 70.28 10.16L68.51 9.63Q67.61 9.37 67.18 8.82Q66.95 8.53 66.84 8.2Q66.74 7.9 66.74 7.58Q66.74 7.07 66.95 6.68Q66.98 6.64 67.01 6.59Q67.09 6.47 67.18 6.36Q67.42 6.11 67.77 5.95Q68.26 5.72 68.9 5.72Q69.72 5.72 70.37 6.05Q70.53 6.13 70.68 6.23Q70.79 6.31 70.9 6.4Q71.49 6.89 71.79 7.73L72.85 7.31Q72.8 7.18 72.75 7.06Q72.51 6.47 72.05 5.98Q72.03 5.96 72.02 5.94Q71.47 5.37 70.69 5.01Q69.89 4.64 68.89 4.64Q67.93 4.64 67.18 5.03L67.17 5.03Q66.66 5.29 66.29 5.69Q66.12 5.88 65.97 6.1Q65.88 6.25 65.81 6.41Q65.54 6.98 65.54 7.67Q65.54 8.19 65.7 8.65Q65.86 9.11 66.18 9.52Q66.21 9.56 66.24 9.6Q66.87 10.34 68 10.67L70.01 11.27Q70.85 11.51 71.3 11.96Q71.35 12 71.39 12.05Q71.75 12.49 71.75 13.23Q71.75 13.62 71.61 13.94Q71.54 14.08 71.45 14.21Q71.44 14.22 71.44 14.23Q71.14 14.63 70.6 14.86Q70.05 15.09 69.34 15.09Q68.41 15.09 67.69 14.71Q67.53 14.62 67.37 14.5Q67.32 14.47 67.27 14.43Q66.52 13.84 66.15 12.77L65.07 13.18Q65.12 13.33 65.18 13.49Q65.45 14.13 65.93 14.68Q66.04 14.81 66.16 14.92Q66.69 15.44 67.4 15.77ZM80.63 15.88Q81.33 16.17 82.16 16.17Q82.98 16.17 83.67 15.88Q83.85 15.8 84.03 15.7Q84.43 15.47 84.74 15.15Q84.94 14.94 85.1 14.69L85.1 16L86.23 16L86.23 4.64L85.1 4.64L85.1 9.17Q85.01 9.04 84.9 8.93Q84.52 8.51 84 8.22Q83.93 8.18 83.86 8.15Q83.1 7.77 82.16 7.77Q81.27 7.77 80.53 8.11Q80.32 8.2 80.13 8.32Q79.79 8.53 79.51 8.79Q79.04 9.22 78.72 9.81Q78.7 9.84 78.68 9.87Q78.2 10.8 78.2 11.97Q78.2 13.07 78.63 13.95Q78.67 14.04 78.72 14.13Q79.04 14.71 79.5 15.15Q79.79 15.42 80.13 15.63Q80.37 15.77 80.63 15.88ZM100.34 15.89Q101.02 16.17 101.82 16.17Q102.74 16.17 103.49 15.83Q103.68 15.74 103.86 15.63Q104.2 15.42 104.48 15.15Q104.95 14.72 105.27 14.13Q105.32 14.03 105.37 13.93Q105.79 13.05 105.79 11.97Q105.79 10.81 105.31 9.89Q105.29 9.85 105.27 9.81Q104.95 9.24 104.5 8.82Q104.21 8.54 103.86 8.32Q103.67 8.21 103.47 8.12Q102.73 7.77 101.82 7.77Q100.86 7.77 100.1 8.16Q100.05 8.19 99.99 8.22Q99.53 8.48 99.18 8.84Q99.02 9 98.89 9.18L98.89 4.64L97.76 4.64L97.76 16L98.89 16L98.89 14.69Q99.05 14.95 99.26 15.16Q99.56 15.48 99.96 15.7Q100.14 15.81 100.34 15.89ZM29.31 4.82L29.31 16L30.51 16L30.51 10.97L36.52 10.97L36.52 16L37.71 16L37.71 4.82L36.52 4.82L36.52 9.85L30.51 9.85L30.51 4.82L29.31 4.82ZM40.19 4.82L40.19 6.47L41.32 6.47L41.32 4.82L40.19 4.82ZM75.09 4.82L75.09 6.47L76.22 6.47L76.22 4.82L75.09 4.82ZM55.81 15.9Q56.5 16.17 57.29 16.17Q58.11 16.17 58.8 15.9Q59.48 15.62 59.98 15.16Q60.47 14.71 60.71 14.16L59.75 13.65Q59.56 13.97 59.31 14.24Q59.07 14.5 58.77 14.71Q58.76 14.71 58.75 14.72Q58.16 15.12 57.29 15.12Q56.94 15.12 56.61 15.04Q56.22 14.95 55.86 14.74Q55.62 14.6 55.42 14.42Q55.05 14.1 54.8 13.63Q54.5 13.06 54.49 12.32L60.81 12.32Q60.85 12.12 60.86 11.94Q60.88 11.75 60.88 11.6Q60.88 11.29 60.83 10.99Q60.77 10.59 60.62 10.2Q60.49 9.85 60.3 9.53Q60.12 9.24 59.88 8.97Q59.74 8.8 59.57 8.66Q59.2 8.32 58.72 8.1Q58.04 7.77 57.17 7.77Q56.41 7.77 55.75 8.04Q55.46 8.15 55.2 8.32Q54.89 8.51 54.62 8.74Q54.14 9.18 53.81 9.79Q53.3 10.73 53.3 11.94Q53.3 13.06 53.74 13.96Q53.78 14.04 53.82 14.12Q54.15 14.71 54.62 15.15Q54.91 15.42 55.26 15.63Q55.53 15.79 55.81 15.9ZM54.5 11.27Q54.56 10.74 54.78 10.3Q55.03 9.82 55.41 9.49Q55.58 9.34 55.78 9.22Q56.09 9.03 56.43 8.93Q56.79 8.82 57.17 8.82Q57.67 8.82 58.1 8.99Q58.32 9.08 58.52 9.21Q58.78 9.37 58.98 9.58Q59.26 9.87 59.44 10.24Q59.49 10.33 59.52 10.42Q59.67 10.82 59.67 11.27L54.5 11.27ZM90.72 15.9Q91.4 16.17 92.2 16.17Q93.02 16.17 93.7 15.9Q94.39 15.62 94.88 15.16Q95.37 14.71 95.62 14.16L94.66 13.65Q94.47 13.97 94.22 14.24Q93.98 14.5 93.68 14.71Q93.67 14.71 93.66 14.72Q93.06 15.12 92.2 15.12Q91.85 15.12 91.52 15.04Q91.12 14.95 90.76 14.74Q90.53 14.6 90.33 14.42Q89.96 14.1 89.71 13.63Q89.4 13.06 89.39 12.32L95.72 12.32Q95.75 12.12 95.77 11.94Q95.78 11.75 95.78 11.6Q95.78 11.29 95.73 10.99Q95.67 10.59 95.52 10.2Q95.39 9.85 95.2 9.53Q95.02 9.24 94.79 8.97Q94.64 8.8 94.48 8.66Q94.1 8.32 93.63 8.1Q92.95 7.77 92.07 7.77Q91.31 7.77 90.66 8.04Q90.37 8.15 90.1 8.32Q89.79 8.51 89.53 8.74Q89.05 9.18 88.71 9.79Q88.2 10.73 88.2 11.94Q88.2 13.06 88.64 13.96Q88.68 14.04 88.73 14.12Q89.05 14.71 89.52 15.15Q89.81 15.42 90.16 15.63Q90.43 15.79 90.72 15.9ZM89.41 11.27Q89.46 10.74 89.69 10.3Q89.94 9.82 90.31 9.49Q90.49 9.34 90.69 9.22Q91 9.03 91.34 8.93Q91.69 8.82 92.07 8.82Q92.57 8.82 93 8.99Q93.22 9.08 93.43 9.21Q93.68 9.37 93.89 9.58Q94.16 9.87 94.35 10.24Q94.39 10.33 94.43 10.42Q94.58 10.82 94.58 11.27L89.41 11.27ZM108.72 15.88Q109.32 16.17 110.09 16.17Q110.8 16.17 111.39 15.96Q111.98 15.74 112.42 15.37Q112.72 15.13 112.91 14.85L112.91 16L114.04 16L114.04 10.48Q114.04 9.83 113.78 9.31Q113.72 9.19 113.65 9.07Q113.55 8.91 113.42 8.76Q113.08 8.37 112.59 8.12Q111.91 7.77 111.02 7.77Q110.71 7.77 110.41 7.83Q110.05 7.89 109.72 8.02Q109.12 8.26 108.66 8.64Q108.63 8.67 108.6 8.69Q108.11 9.11 107.88 9.62L108.91 10.18Q109.01 9.95 109.16 9.75Q109.39 9.45 109.73 9.22Q109.86 9.14 110 9.07Q110.46 8.85 111.02 8.85Q111.76 8.85 112.26 9.2Q112.32 9.25 112.39 9.3Q112.61 9.5 112.74 9.75Q112.91 10.07 112.91 10.48L112.91 10.89L110 11.37Q109.12 11.52 108.54 11.89Q107.99 12.23 107.72 12.73Q107.71 12.75 107.71 12.77Q107.66 12.85 107.62 12.95Q107.43 13.39 107.43 13.91Q107.43 14.37 107.6 14.76Q107.68 14.93 107.78 15.08Q107.85 15.19 107.94 15.29Q108.25 15.65 108.72 15.88ZM112.91 11.91L112.91 12.52Q112.91 13.04 112.74 13.49Q112.66 13.68 112.57 13.85Q112.43 14.09 112.24 14.29Q111.97 14.59 111.61 14.8Q110.99 15.16 110.17 15.16Q109.6 15.16 109.21 14.89Q109.13 14.84 109.06 14.78Q108.82 14.57 108.71 14.3Q108.64 14.1 108.64 13.86Q108.64 13.59 108.73 13.35Q108.82 13.11 109.02 12.91Q109.4 12.5 110.27 12.35L112.91 11.91ZM116.34 7.96L116.34 16L117.47 16L117.47 11.04Q117.47 10.12 117.93 9.59Q117.96 9.55 118 9.52Q118.14 9.37 118.3 9.26Q118.75 8.97 119.39 8.97L120.09 8.97L120.09 7.85L119.59 7.85Q118.76 7.85 118.18 8.18Q117.82 8.39 117.57 8.69Q117.52 8.75 117.47 8.82L117.47 7.96L116.34 7.96ZM40.19 7.96L40.19 16L41.32 16L41.32 7.96L40.19 7.96ZM75.09 7.96L75.09 16L76.22 16L76.22 7.96L75.09 7.96ZM48.34 14.86Q47.87 15.05 47.32 15.05Q46.73 15.05 46.23 14.84Q46.04 14.76 45.87 14.65Q45.65 14.51 45.47 14.34Q45.11 14 44.86 13.55Q44.83 13.49 44.8 13.43Q44.5 12.77 44.5 11.97Q44.5 11.09 44.86 10.41Q44.86 10.4 44.86 10.4Q45.09 9.97 45.43 9.66Q45.63 9.46 45.88 9.31Q46.11 9.16 46.37 9.07Q46.81 8.9 47.32 8.9Q47.86 8.9 48.33 9.08Q48.56 9.17 48.78 9.31Q49.02 9.46 49.22 9.65Q49.57 9.97 49.81 10.41Q49.87 10.51 49.91 10.62Q50.19 11.23 50.19 11.97Q50.19 12.72 49.91 13.34Q49.87 13.45 49.81 13.55Q49.58 13.97 49.25 14.28Q49.03 14.49 48.78 14.65Q48.57 14.78 48.34 14.86ZM83.25 14.86Q82.77 15.05 82.22 15.05Q81.63 15.05 81.14 14.84Q80.95 14.76 80.77 14.65Q80.56 14.51 80.37 14.34Q80.01 14 79.77 13.55Q79.74 13.49 79.71 13.43Q79.4 12.77 79.4 11.97Q79.4 11.09 79.76 10.41L79.77 10.4Q80 9.97 80.33 9.66Q80.54 9.46 80.78 9.31Q81.02 9.16 81.27 9.07Q81.72 8.9 82.22 8.9Q82.76 8.9 83.23 9.08Q83.47 9.17 83.68 9.31Q83.92 9.46 84.13 9.65Q84.48 9.97 84.72 10.41Q84.77 10.51 84.82 10.62Q85.1 11.23 85.1 11.97Q85.1 12.72 84.82 13.34Q84.77 13.45 84.72 13.55Q84.49 13.97 84.15 14.28Q83.94 14.49 83.68 14.65Q83.47 14.78 83.25 14.86ZM102.85 14.84Q102.35 15.05 101.77 15.05Q101.22 15.05 100.75 14.87Q100.52 14.78 100.3 14.65Q100.06 14.49 99.85 14.3Q99.51 13.98 99.27 13.55Q99.21 13.45 99.17 13.34Q98.89 12.72 98.89 11.97Q98.89 11.23 99.17 10.62Q99.21 10.51 99.27 10.41Q99.51 9.96 99.87 9.63Q100.07 9.45 100.3 9.31Q100.52 9.17 100.77 9.08Q101.23 8.9 101.77 8.9Q102.34 8.9 102.83 9.11Q103.03 9.19 103.21 9.31Q103.44 9.45 103.63 9.63Q103.98 9.96 104.22 10.4Q104.22 10.42 104.23 10.43Q104.59 11.11 104.59 11.97Q104.59 12.76 104.28 13.41Q104.25 13.48 104.22 13.55Q103.98 14 103.63 14.33Q103.44 14.5 103.21 14.65Q103.04 14.76 102.85 14.84Z" fill="#828FA3" fill-opacity="1.000000" fill-rule="evenodd"/>
		<path id="Shape" d="M17.7923 10.7617C16.7538 12.5239 15.1854 13.9409 13.3063 14.8081L14.8099 16.9561C14.9286 17.126 14.8874 17.3599 14.7177 17.4785L14.0697 17.9321C13.9 18.0508 13.6662 18.0098 13.5474 17.8398L3.19012 3.04395C3.07135 2.87402 3.11261 2.64014 3.28229 2.52148L3.9303 2.06787C4.09998 1.94922 4.3338 1.99023 4.45258 2.16016L6.18774 4.63867C7.0816 4.38574 8.02527 4.25 9 4.25C12.7456 4.25 16.0311 6.25 17.7923 9.23828C18.0692 9.7085 18.0692 10.2915 17.7923 10.7617ZM9.74493 5.78125C12.6351 6.02295 15.1201 7.6582 16.5 10C15.5721 11.5747 14.1445 12.8296 12.4302 13.5566L11.5959 12.3647C13.2731 11.0693 13.7072 8.78857 12.7499 6.99854L12.75 7C12.75 7.96631 11.9665 8.75 11 8.75C10.0335 8.75 9.25 7.96631 9.25 7C9.25 6.52588 9.43884 6.09619 9.74493 5.78125ZM1.5 10C2.99713 12.5405 5.7951 14.25 9 14.25C9.07947 14.25 9.15894 14.2485 9.23834 14.2466L10.239 15.6758C9.82782 15.7251 9.41412 15.75 9 15.75C5.25439 15.75 1.96887 13.75 0.207703 10.7617C-0.0692139 10.2915 -0.0692139 9.7085 0.207703 9.23828C0.997559 7.89795 2.09381 6.75732 3.40009 5.90625L4.26074 7.13574C3.12811 7.86426 2.17987 8.84619 1.5 10ZM4.86786 8.00293C4.26532 10.5078 6.00684 12.9414 8.52191 13.2231L4.86786 8.00293Z" clip-rule="evenodd" fill="#828FA3" fill-opacity="1.000000" fill-rule="evenodd"/>
	</g>
</svg>
