<svg width="16.000000" height="10.222198" viewBox="0 0 16 10.2222" fill="none" xmlns="http://www.w3.org/2000/svg" xmlns:xlink="http://www.w3.org/1999/xlink">
	<desc>
			Created with Pixso.
	</desc>
	<defs/>
	<path id="Shape" d="M8 0C11.3281 0 14.2491 1.77637 15.8154 4.43417C16.0615 4.8519 16.0615 5.3703 15.8154 5.78802C14.2499 8.44461 11.3295 10.2222 8 10.2222C4.67194 10.2222 1.75085 8.44586 0.184631 5.78806C-0.0615234 5.37033 -0.0615234 4.8519 0.184631 4.43417C1.75012 1.77762 4.67053 0 8 0ZM8 8.88889C5.91217 8.88889 4.22223 7.19925 4.22223 5.11111C4.22223 3.02328 5.91187 1.33334 8 1.33334C10.0878 1.33334 11.7778 3.02295 11.7778 5.11111C11.7778 7.19894 10.0881 8.88889 8 8.88889ZM8 8C9.59552 8 10.8889 6.7066 10.8889 5.11111C10.8889 3.51559 9.59552 2.22223 8 2.22223C7.50812 2.22223 7.04504 2.34531 6.63965 2.5621L6.6405 2.56207C7.29749 2.56207 7.83008 3.09467 7.83008 3.75165C7.83008 4.40857 7.29749 4.94116 6.6405 4.94116C5.98358 4.94116 5.45099 4.4086 5.45099 3.75165L5.45099 3.75073C5.23419 4.15613 5.11115 4.6192 5.11115 5.11111C5.11115 6.7066 6.40448 8 8 8Z" clip-rule="evenodd" fill="#FFFFFF" fill-opacity="1.000000" fill-rule="evenodd"/>
</svg>
