<svg width="14.999878" height="15.000000" viewBox="0 0 14.9999 15" fill="none" xmlns="http://www.w3.org/2000/svg" xmlns:xlink="http://www.w3.org/1999/xlink">
	<desc>
			Created with Pixso.
	</desc>
	<defs/>
	<path id="Combined Shape" d="M14.965 10.271C15.135 9.86572 14.6492 9.521 14.2417 9.70068C13.4271 10.0586 12.547 10.2422 11.6575 10.2407C8.16998 10.2407 5.34332 7.4707 5.34332 4.05322C5.34204 2.89941 5.66986 1.76904 6.28833 0.794922C6.52502 0.421875 6.24084 -0.0947266 5.8075 0.0151367C2.46667 0.867676 0 3.84424 0 7.38525C0 11.5908 3.47919 15 7.77173 15C11.0217 15 13.805 13.0459 14.965 10.271ZM9.83502 0.759277C9.54077 0.317383 10.0675 -0.208984 10.5092 0.0859375L11.2967 0.61084C11.616 0.82373 11.9912 0.9375 12.375 0.9375C12.7588 0.9375 13.134 0.82373 13.4533 0.61084L14.24 0.0859375C14.6825 -0.208984 15.2092 0.317383 14.9142 0.759277L14.3892 1.54688C14.1762 1.86621 14.0625 2.24121 14.0625 2.625C14.0625 3.00879 14.1762 3.38428 14.3892 3.70361L14.9142 4.49072C15.2092 4.93262 14.6825 5.45898 14.2408 5.16406L13.4533 4.63916C13.134 4.42627 12.7588 4.3125 12.375 4.3125C11.9912 4.3125 11.616 4.42627 11.2967 4.63916L10.51 5.16406C10.0683 5.45898 9.54077 4.93262 9.83502 4.49072L10.36 3.70361C10.573 3.38428 10.6866 3.00879 10.6866 2.625C10.6866 2.24121 10.573 1.86621 10.36 1.54688L9.83502 0.759277Z" clip-rule="evenodd" fill="#828FA3" fill-opacity="1.000000" fill-rule="evenodd"/>
</svg>
