<svg width="18.333313" height="18.333496" viewBox="0 0 18.3333 18.3335" fill="none" xmlns="http://www.w3.org/2000/svg" xmlns:xlink="http://www.w3.org/1999/xlink">
	<desc>
			Created with Pixso.
	</desc>
	<defs/>
	<path id="Combined Shape" d="M9.75586 0.244141C9.59967 0.0878906 9.3877 0 9.16669 0C8.94568 0 8.7337 0.0878906 8.57739 0.244141C8.42114 0.400391 8.33331 0.612305 8.33331 0.833496L8.33331 1.6665C8.33331 1.8877 8.42114 2.09961 8.57739 2.25586C8.7337 2.41211 8.94568 2.5 9.16669 2.5C9.3877 2.5 9.59967 2.41211 9.75586 2.25586C9.91217 2.09961 10 1.8877 10 1.6665L10 0.833496C10 0.612305 9.91217 0.400391 9.75586 0.244141ZM2.5 1.66699C2.27905 1.66699 2.06708 1.75439 1.91083 1.91064C1.75458 2.06689 1.66687 2.27881 1.66687 2.5C1.66687 2.72119 1.75458 2.93311 1.91083 3.08936L3.16083 4.33936C3.31799 4.49072 3.5285 4.5752 3.74701 4.57324C3.96552 4.57129 4.1745 4.4834 4.32904 4.3291C4.48352 4.17432 4.57117 3.96533 4.57306 3.74707L4.57306 3.73975C4.57306 3.52393 4.48926 3.31641 4.33917 3.16064L3.08917 1.91064C2.93292 1.75439 2.72095 1.66699 2.5 1.66699ZM16.6665 2.5C16.6665 2.27881 16.5787 2.06689 16.4225 1.91064C16.2662 1.75439 16.0543 1.66699 15.8333 1.66699C15.6124 1.66699 15.4005 1.75439 15.2442 1.91064L13.9942 3.16064C13.9146 3.23779 13.8511 3.32959 13.8074 3.43115C13.7638 3.5332 13.7408 3.64258 13.7398 3.75293L13.7397 3.76074C13.7397 3.86865 13.7609 3.97559 13.8018 4.07568C13.8437 4.17822 13.9056 4.27148 13.9838 4.34961C14.0621 4.42773 14.1551 4.48975 14.2576 4.53174C14.36 4.57324 14.4697 4.59473 14.5803 4.59375C14.691 4.59277 14.8003 4.56982 14.902 4.52588C15.0037 4.48242 15.0956 4.41895 15.1725 4.33936L16.4225 3.08936C16.5787 2.93311 16.6665 2.72119 16.6665 2.5ZM6.2204 6.2207C7.00183 5.43896 8.06158 5 9.16669 5C10.2717 5 11.3316 5.43896 12.113 6.2207C12.8944 7.00195 13.3333 8.06201 13.3333 9.16699C13.3333 10.272 12.8944 11.3315 12.113 12.1133C11.3316 12.8945 10.2717 13.3335 9.16669 13.3335C8.06158 13.3335 7.00183 12.8945 6.2204 12.1133C5.43903 11.3315 5 10.272 5 9.16699C5 8.06201 5.43903 7.00195 6.2204 6.2207ZM0.24408 8.57764C0.0877686 8.73389 0 8.9458 0 9.1665C0 9.3877 0.0877686 9.59961 0.24408 9.75586C0.40033 9.91211 0.612305 10 0.833313 10L1.66669 10C1.8877 10 2.09961 9.91211 2.25592 9.75586C2.41223 9.59961 2.5 9.3877 2.5 9.1665C2.5 8.9458 2.41223 8.73389 2.25592 8.57764C2.09961 8.4209 1.8877 8.3335 1.66669 8.3335L0.833313 8.3335C0.612305 8.3335 0.40033 8.4209 0.24408 8.57764ZM16.0774 8.57764C15.9211 8.73389 15.8333 8.9458 15.8333 9.1665C15.8333 9.3877 15.9211 9.59961 16.0774 9.75586C16.2337 9.91211 16.4457 10 16.6667 10L17.5 10C17.721 10 17.933 9.91211 18.0893 9.75586C18.2455 9.59961 18.3333 9.3877 18.3333 9.1665C18.3333 8.9458 18.2455 8.73389 18.0893 8.57764C17.933 8.4209 17.721 8.3335 17.5 8.3335L16.6667 8.3335C16.4457 8.3335 16.2337 8.4209 16.0774 8.57764ZM4.58313 14.5835C4.58313 14.3623 4.49536 14.1504 4.33917 13.9941C4.18292 13.8379 3.97095 13.75 3.75 13.75C3.52905 13.75 3.31708 13.8379 3.16083 13.9941L1.91083 15.2441C1.76074 15.3994 1.67688 15.6074 1.67688 15.8232L1.67694 15.8306C1.67883 16.0488 1.76648 16.2578 1.92096 16.4126C2.0755 16.5669 2.28448 16.6543 2.50299 16.6562C2.7215 16.6582 2.93201 16.5742 3.08917 16.4224L4.33917 15.1724C4.49536 15.0161 4.58313 14.8042 4.58313 14.5835ZM14.5833 13.75C14.3624 13.75 14.1505 13.8379 13.9942 13.9941C13.838 14.1504 13.7502 14.3623 13.7502 14.5835C13.7502 14.8042 13.838 15.0161 13.9942 15.1724L15.2442 16.4224C15.4013 16.5742 15.6118 16.6582 15.8303 16.6562C16.0488 16.6543 16.2579 16.5669 16.4124 16.4126C16.5669 16.2578 16.6545 16.0488 16.6564 15.8306L16.6564 15.8232C16.6564 15.6074 16.5726 15.3994 16.4225 15.2441L15.1725 13.9941C15.0162 13.8379 14.8043 13.75 14.5833 13.75ZM9.75586 16.0771C9.59967 15.9214 9.3877 15.8335 9.16669 15.8335C8.94568 15.8335 8.7337 15.9214 8.57739 16.0771C8.42114 16.2339 8.33331 16.4458 8.33331 16.6665L8.33331 17.5C8.33331 17.7212 8.42114 17.9331 8.57739 18.0894C8.7337 18.2456 8.94568 18.3335 9.16669 18.3335C9.3877 18.3335 9.59967 18.2456 9.75586 18.0894C9.91217 17.9331 10 17.7212 10 17.5L10 16.6665C10 16.4458 9.91217 16.2339 9.75586 16.0771Z" clip-rule="evenodd" fill="#828FA3" fill-opacity="1.000000" fill-rule="evenodd"/>
</svg>
